<?xml version="1.0" encoding="UTF-8"?><svg version="1.1" width="980px" height="624px" viewBox="0 0 980.0 624.0" xmlns="http://www.w3.org/2000/svg" xmlns:xlink="http://www.w3.org/1999/xlink"><defs><clipPath id="i0"><path d="M1063,0 L1063,638 L0,638 L0,0 L1063,0 Z"></path></clipPath><clipPath id="i1"><path d="M208,0 C212.418278,-8.11624501e-16 216,3.581722 216,8 L216,166 C216,170.418278 212.418278,174 208,174 L8,174 C3.581722,174 2.705415e-16,170.418278 0,166 L0,8 C-5.41083001e-16,3.581722 3.581722,5.41083001e-16 8,0 L208,0 Z"></path></clipPath><clipPath id="i2"><path d="M29,0 C45.0162577,-2.94213882e-15 58,12.9837423 58,29 C58,45.0162577 45.0162577,58 29,58 C12.9837423,58 9.80712939e-16,45.0162577 0,29 C-1.96142588e-15,12.9837423 12.9837423,1.96142588e-15 29,0 Z"></path></clipPath><clipPath id="i3"><path d="M23,0 C35.7025492,0 46,10.2974508 46,23 C46,35.7025492 35.7025492,46 23,46 C10.2974508,46 0,35.7025492 0,23 C0,10.2974508 10.2974508,0 23,0 Z"></path></clipPath><clipPath id="i4"><path d="M185,0 C222.003078,-6.7973552e-15 252,29.9969218 252,67 C252,104.003078 222.003078,134 185,134 L67,134 C29.9969218,134 2.26578507e-15,104.003078 0,67 C-4.53157013e-15,29.9969218 29.9969218,4.53157013e-15 67,0 L185,0 Z"></path></clipPath><clipPath id="i5"><path d="M58,0 C88.927946,-5.68137151e-15 114,25.072054 114,56 L114,58 C114,88.927946 88.927946,114 58,114 L56,114 C25.072054,114 1.8937905e-15,88.927946 0,58 L0,56 C-3.78758101e-15,25.072054 25.072054,3.78758101e-15 56,0 L58,0 Z"></path></clipPath><clipPath id="i6"><path d="M52,69 C61.3888407,69 69,76.6111593 69,86 C69,95.3888407 61.3888407,103 52,103 C42.6111593,103 35,95.3888407 35,86 C35,76.6111593 42.6111593,69 52,69 Z M17,34 C26.3888407,34 34,41.6111593 34,51 C34,60.3888407 26.3888407,68 17,68 C7.61115925,68 5.74900688e-16,60.3888407 0,51 C-1.14980138e-15,41.6111593 7.61115925,34 17,34 Z M87,34 C96.3888407,34 104,41.6111593 104,51 C104,60.3888407 96.3888407,68 87,68 C77.6111593,68 70,60.3888407 70,51 C70,41.6111593 77.6111593,34 87,34 Z M52,0 C61.3888407,-1.72470207e-15 69,7.61115925 69,17 C69,26.3888407 61.3888407,34 52,34 C42.6111593,34 35,26.3888407 35,17 C35,7.61115925 42.6111593,1.14980138e-15 52,0 Z"></path></clipPath><clipPath id="i7"><path d="M30,0 C35.5228475,-1.01453063e-15 40,4.4771525 40,10 C40,15.5228475 35.5228475,20 30,20 L10,20 C4.4771525,20 3.38176876e-16,15.5228475 0,10 C-6.76353751e-16,4.4771525 4.4771525,6.76353751e-16 10,0 L30,0 Z"></path></clipPath><clipPath id="i8"><path d="M3,0 C4.65685425,-3.04359188e-16 6,1.34314575 6,3 L6,9 C6,10.6568542 4.65685425,12 3,12 C1.34314575,12 1.01453063e-16,10.6568542 0,9 L0,3 C-2.02906125e-16,1.34314575 1.34314575,2.02906125e-16 3,0 Z M13,0 C14.6568542,-3.04359188e-16 16,1.34314575 16,3 L16,9 C16,10.6568542 14.6568542,12 13,12 C11.3431458,12 10,10.6568542 10,9 L10,3 C10,1.34314575 11.3431458,2.02906125e-16 13,0 Z M23,0 C24.6568542,-3.04359188e-16 26,1.34314575 26,3 L26,9 C26,10.6568542 24.6568542,12 23,12 C21.3431458,12 20,10.6568542 20,9 L20,3 C20,1.34314575 21.3431458,2.02906125e-16 23,0 Z"></path></clipPath><clipPath id="i9"><path d="M3,0 C4.65685425,0 6,1.34314575 6,3 C6,4.65685425 4.65685425,6 3,6 C1.34314575,6 0,4.65685425 0,3 C0,1.34314575 1.34314575,0 3,0 Z"></path></clipPath></defs><g transform="translate(-41.0 -7.0)"><g clip-path="url(#i0)"><g transform="translate(42.0 8.0)"><g transform="translate(111.0 164.0)"><path d="M8,0 L750,0 C754.418278,-8.11624501e-16 758,3.581722 758,8 L758,436 C758,448.150264 748.150264,458 736,458 L22,458 C9.8497355,458 1.49548438e-14,448.150264 0,436 L0,8 C-5.41083001e-16,3.581722 3.581722,-6.56434436e-15 8,0 Z" stroke="#9FAABA" stroke-width="2" fill="none" stroke-miterlimit="10"></path><g transform="translate(0.0 199.0)"><path d="M0.5,0.5 L758,1" stroke="#9FAABA" stroke-width="2" fill="none" stroke-linecap="square" stroke-miterlimit="10"></path></g><g transform="translate(283.0 451.0)"><path d="M0,1 L188,1" stroke="#9FAABA" stroke-width="2" fill="none" stroke-linecap="square" stroke-miterlimit="10"></path></g><g transform="translate(471.0 452.0)"><path d="M0,0 C3.83780551,0 6.83780551,0.7315305 9,2.1945915 L14.2422025,6" stroke="#9FAABA" stroke-width="2" fill="none" stroke-miterlimit="10"></path></g><g transform="translate(285.24220251104634 452.0) scale(-1.0 1.0)"><path d="M0,0 C3.83780551,0 6.83780551,0.7315305 9,2.1945915 L14.2422025,6" stroke="#9FAABA" stroke-width="2" fill="none" stroke-miterlimit="10"></path></g><g transform="translate(271.0 11.0)"><g clip-path="url(#i1)"><path d="M8,0 L208,0 C212.418278,-8.11624501e-16 216,3.581722 216,8 L216,166 C216,170.418278 212.418278,174 208,174 L8,174 C3.581722,174 2.705415e-16,170.418278 0,166 L0,8 C-5.41083001e-16,3.581722 3.581722,5.41083001e-16 8,0 Z" stroke="#9FAABA" stroke-width="4" fill="none" stroke-miterlimit="5"></path></g></g><g transform="translate(0.0 193.0)"><path d="M0.5,0.5 L758.5,0.5" stroke="#9FAABA" stroke-width="2" fill="none" stroke-linecap="square" stroke-miterlimit="10"></path></g></g><g transform="translate(120.0 192.0)"><g transform="translate(644.0 38.0)"><g clip-path="url(#i2)"><path d="M29,0 C45.0162577,-2.94213882e-15 58,12.9837423 58,29 C58,45.0162577 45.0162577,58 29,58 C12.9837423,58 9.80712939e-16,45.0162577 0,29 C-1.96142588e-15,12.9837423 12.9837423,1.96142588e-15 29,0 Z" stroke="#9FAABA" stroke-width="4" fill="none" stroke-miterlimit="5"></path></g><g transform="translate(6.0 6.0)"><g clip-path="url(#i3)"><path d="M23,46 C35.7025492,46 46,35.7025492 46,23 C46,10.2974508 35.7025492,0 23,0 C10.2974508,0 0,10.2974508 0,23 C0,35.7025492 10.2974508,46 23,46 Z" stroke="#9FAABA" stroke-width="8" fill="none" stroke-miterlimit="5"></path></g></g></g><g transform="translate(37.0 38.0)"><g clip-path="url(#i2)"><path d="M29,0 C45.0162577,-2.94213882e-15 58,12.9837423 58,29 C58,45.0162577 45.0162577,58 29,58 C12.9837423,58 9.80712939e-16,45.0162577 0,29 C-1.96142588e-15,12.9837423 12.9837423,1.96142588e-15 29,0 Z" stroke="#9FAABA" stroke-width="4" fill="none" stroke-miterlimit="5"></path></g><g transform="translate(6.0 6.0)"><g clip-path="url(#i3)"><path d="M23,46 C35.7025492,46 46,35.7025492 46,23 C46,10.2974508 35.7025492,0 23,0 C10.2974508,0 0,10.2974508 0,23 C0,35.7025492 10.2974508,46 23,46 Z" stroke="#9FAABA" stroke-width="8" fill="none" stroke-miterlimit="5"></path></g></g></g><g clip-path="url(#i4)"><path d="M67,0 L185,0 C222.003078,-6.7973552e-15 252,29.9969218 252,67 C252,104.003078 222.003078,134 185,134 L67,134 C29.9969218,134 2.26578507e-15,104.003078 0,67 C-4.53157013e-15,29.9969218 29.9969218,4.53157013e-15 67,0 Z" stroke="#9FAABA" stroke-width="4" fill="none" stroke-miterlimit="5"></path></g><g transform="translate(488.0 0.0)"><g clip-path="url(#i4)"><path d="M67,0 L185,0 C222.003078,-6.7973552e-15 252,29.9969218 252,67 C252,104.003078 222.003078,134 185,134 L67,134 C29.9969218,134 2.26578507e-15,104.003078 0,67 C-4.53157013e-15,29.9969218 29.9969218,4.53157013e-15 67,0 Z" stroke="#9FAABA" stroke-width="4" fill="none" stroke-miterlimit="5"></path></g></g><g transform="translate(11.0 10.0)"><g clip-path="url(#i5)"><path d="M56,0 L58,0 C88.927946,-5.68137151e-15 114,25.072054 114,56 L114,58 C114,88.927946 88.927946,114 58,114 L56,114 C25.072054,114 1.8937905e-15,88.927946 0,58 L0,56 C-3.78758101e-15,25.072054 25.072054,3.78758101e-15 56,0 Z" stroke="#9FAABA" stroke-width="4" fill="none" stroke-miterlimit="5"></path></g></g><g transform="translate(615.0 10.0)"><g clip-path="url(#i5)"><path d="M56,0 L58,0 C88.927946,-5.68137151e-15 114,25.072054 114,56 L114,58 C114,88.927946 88.927946,114 58,114 L56,114 C25.072054,114 1.8937905e-15,88.927946 0,58 L0,56 C-3.78758101e-15,25.072054 25.072054,3.78758101e-15 56,0 Z" stroke="#9FAABA" stroke-width="4" fill="none" stroke-miterlimit="5"></path></g></g><g transform="translate(502.0 16.0)"><g clip-path="url(#i6)"><path d="M17,34 C26.3888407,34 34,41.6111593 34,51 C34,60.3888407 26.3888407,68 17,68 C7.61115925,68 5.74900688e-16,60.3888407 0,51 C-1.14980138e-15,41.6111593 7.61115925,34 17,34 Z M87,34 C96.3888407,34 104,41.6111593 104,51 C104,60.3888407 96.3888407,68 87,68 C77.6111593,68 70,60.3888407 70,51 C70,41.6111593 77.6111593,34 87,34 Z M52,0 C61.3888407,-1.72470207e-15 69,7.61115925 69,17 C69,26.3888407 61.3888407,34 52,34 C42.6111593,34 35,26.3888407 35,17 C35,7.61115925 42.6111593,1.14980138e-15 52,0 Z M52,69 C61.3888407,69 69,76.6111593 69,86 C69,95.3888407 61.3888407,103 52,103 C42.6111593,103 35,95.3888407 35,86 C35,76.6111593 42.6111593,69 52,69 Z" stroke="#9FAABA" stroke-width="4" fill="none" stroke-miterlimit="5"></path></g></g><g transform="translate(140.01188405962762 24.35388177969616)"><path d="M45.5044173,50 C48.3714585,50 53.080291,53.677962 59.6309147,61.0338861 C60.285277,61.7651153 60.6460431,62.7121196 60.6461182,63.6933851 L60.6461182,81.3754645 C60.6459868,83.0988651 59.5420352,84.6284309 57.9064426,85.1715206 C54.2159607,86.3963966 50.0819523,87.0088346 45.5044173,87.0088346 C40.9268823,87.0088346 36.7928739,86.3963966 33.102392,85.1715206 C31.4667994,84.6284309 30.3628478,83.0988651 30.3627164,81.3754645 L30.3627164,63.6933851 C30.3627915,62.7121196 30.7235576,61.7651153 31.3779199,61.0338861 C37.9285436,53.677962 42.6373761,50 45.5044173,50 Z M85.3754645,29.3627164 C87.0988651,29.3628478 88.6284309,30.4667994 89.1715206,32.102392 C90.3963966,35.7928739 91.0088346,39.9268823 91.0088346,44.5044173 C91.0088346,49.0819523 90.3963966,53.2159607 89.1715206,56.9064426 C88.6284309,58.5420352 87.0988651,59.6459868 85.3754645,59.6461182 L67.6933851,59.6461182 C66.7121196,59.6460431 65.7651153,59.285277 65.0338861,58.6309147 C57.677962,52.080291 54,47.3714585 54,44.5044173 C54,41.6373761 57.677962,36.9285436 65.0338861,30.3779199 C65.7651153,29.7235576 66.7121196,29.3627915 67.6933851,29.3627164 L85.3754645,29.3627164 Z M23.3154495,29.3627164 C24.296715,29.3627915 25.2437193,29.7235576 25.9749485,30.3779199 C33.3308726,36.9285436 37.0088346,41.6373761 37.0088346,44.5044173 C37.0088346,47.3714585 33.3308726,52.080291 25.9749485,58.6309147 C25.2437193,59.285277 24.296715,59.6460431 23.3154495,59.6461182 L5.6333701,59.6461182 C3.90996954,59.6459868 2.38040371,58.5420352 1.83731401,56.9064426 C0.612438002,53.2159607 0,49.0819523 0,44.5044173 C0,39.9268823 0.612438002,35.7928739 1.83731401,32.102392 C2.38040371,30.4667994 3.90996954,29.3628478 5.6333701,29.3627164 L23.3154495,29.3627164 Z M45.5044173,-3.55271368e-15 C50.0819523,-3.83300686e-15 54.2159607,0.612438002 57.9064426,1.83731401 C59.5420352,2.38040371 60.6459868,3.90996954 60.6461182,5.6333701 L60.6461182,23.3154495 C60.6460431,24.296715 60.285277,25.2437193 59.6309147,25.9749485 C53.080291,33.3308726 48.3714585,37.0088346 45.5044173,37.0088346 C42.6373761,37.0088346 37.9285436,33.3308726 31.3779199,25.9749485 C30.7235576,25.2437193 30.3627915,24.296715 30.3627164,23.3154495 L30.3627164,5.6333701 C30.3628478,3.90996954 31.4667994,2.38040371 33.102392,1.83731401 C36.7928739,0.612438002 40.9268823,-3.2724205e-15 45.5044173,-3.55271368e-15 Z" stroke="#9FAABA" stroke-width="2" fill="none" stroke-miterlimit="10"></path></g></g><g transform="translate(143.0 376.0)"><path d="M12,0 L682,0 C688.627417,-1.21743675e-15 694,5.372583 694,12 L694,209 C694,215.627417 688.627417,221 682,221 L12,221 C5.372583,221 1.81693806e-14,215.627417 0,209 L0,12 C2.74108918e-15,5.372583 5.372583,6.14069502e-15 12,0 Z" stroke="#9FAABA" stroke-width="2" fill="none" stroke-miterlimit="10"></path><g transform="translate(0.0 38.0)"><path d="M0,1 L694,1" stroke="#9FAABA" stroke-width="2" fill="none" stroke-linecap="square" stroke-miterlimit="10"></path></g><g transform="translate(0.0 73.0)"><path d="M0,1 L694,1" stroke="#9FAABA" stroke-width="2" fill="none" stroke-linecap="square" stroke-miterlimit="10"></path></g><g transform="translate(0.0 108.0)"><path d="M0,1 L694,1" stroke="#9FAABA" stroke-width="2" fill="none" stroke-linecap="square" stroke-miterlimit="10"></path></g><g transform="translate(0.0 143.0)"><path d="M0,1 L694,1" stroke="#9FAABA" stroke-width="2" fill="none" stroke-linecap="square" stroke-miterlimit="10"></path></g><g transform="translate(0.0 178.0)"><path d="M0,1 L694,1" stroke="#9FAABA" stroke-width="2" fill="none" stroke-linecap="square" stroke-miterlimit="10"></path></g><g transform="translate(44.0 0.0)"><path d="M0.5,0.5 L1,74" stroke="#9FAABA" stroke-width="2" fill="none" stroke-linecap="square" stroke-miterlimit="10"></path></g><g transform="translate(177.0 2.0)"><path d="M1,0 L1,72" stroke="#9FAABA" stroke-width="2" fill="none" stroke-linecap="square" stroke-miterlimit="10"></path></g><g transform="translate(131.0 0.0)"><path d="M0.5,0.5 L1,74" stroke="#9FAABA" stroke-width="2" fill="none" stroke-linecap="square" stroke-miterlimit="10"></path></g><g transform="translate(86.0 0.0)"><path d="M0.5,0.5 L0.5,74.5" stroke="#9FAABA" stroke-width="2" fill="none" stroke-linecap="square" stroke-miterlimit="10"></path></g><g transform="translate(222.0 1.0)"><path d="M0.5,0.5 L1,73" stroke="#9FAABA" stroke-width="2" fill="none" stroke-linecap="square" stroke-miterlimit="10"></path></g><g transform="translate(312.0 1.0)"><path d="M0.5,0.5 L1,73" stroke="#9FAABA" stroke-width="2" fill="none" stroke-linecap="square" stroke-miterlimit="10"></path></g><g transform="translate(268.0 2.0)"><path d="M0.5,0.5 L1,72" stroke="#9FAABA" stroke-width="2" fill="none" stroke-linecap="square" stroke-miterlimit="10"></path></g><g transform="translate(382.0 0.0)"><path d="M0.5,0.5 L0.5,37.5" stroke="#9FAABA" stroke-width="2" fill="none" stroke-linecap="square" stroke-miterlimit="10"></path></g><g transform="translate(64.0 74.0)"><path d="M1,0 L1,35" stroke="#9FAABA" stroke-width="2" fill="none" stroke-linecap="square" stroke-miterlimit="10"></path></g><g transform="translate(109.0 74.0)"><path d="M1,0 L1,35" stroke="#9FAABA" stroke-width="2" fill="none" stroke-linecap="square" stroke-miterlimit="10"></path></g><g transform="translate(109.0 144.0)"><path d="M1,0 L1,35" stroke="#9FAABA" stroke-width="2" fill="none" stroke-linecap="square" stroke-miterlimit="10"></path></g><g transform="translate(152.0 74.0)"><path d="M1,0 L1,35" stroke="#9FAABA" stroke-width="2" fill="none" stroke-linecap="square" stroke-miterlimit="10"></path></g><g transform="translate(152.0 144.0)"><path d="M1,0 L1,35" stroke="#9FAABA" stroke-width="2" fill="none" stroke-linecap="square" stroke-miterlimit="10"></path></g><g transform="translate(198.0 74.0)"><path d="M1,0 L1,35" stroke="#9FAABA" stroke-width="2" fill="none" stroke-linecap="square" stroke-miterlimit="10"></path></g><g transform="translate(131.0 109.0)"><path d="M1,0 L1,35" stroke="#9FAABA" stroke-width="2" fill="none" stroke-linecap="square" stroke-miterlimit="10"></path></g><g transform="translate(177.0 109.0)"><path d="M1,0 L1,35" stroke="#9FAABA" stroke-width="2" fill="none" stroke-linecap="square" stroke-miterlimit="10"></path></g><g transform="translate(222.0 109.0)"><path d="M1,0 L1,35" stroke="#9FAABA" stroke-width="2" fill="none" stroke-linecap="square" stroke-miterlimit="10"></path></g><g transform="translate(268.0 109.0)"><path d="M1,0 L1,35" stroke="#9FAABA" stroke-width="2" fill="none" stroke-linecap="square" stroke-miterlimit="10"></path></g><g transform="translate(312.0 109.0)"><path d="M1,0 L1,35" stroke="#9FAABA" stroke-width="2" fill="none" stroke-linecap="square" stroke-miterlimit="10"></path></g><g transform="translate(356.0 109.0)"><path d="M1,0 L1,35" stroke="#9FAABA" stroke-width="2" fill="none" stroke-linecap="square" stroke-miterlimit="10"></path></g><g transform="translate(403.0 109.0)"><path d="M1,0 L1,35" stroke="#9FAABA" stroke-width="2" fill="none" stroke-linecap="square" stroke-miterlimit="10"></path></g><g transform="translate(447.0 109.0)"><path d="M1,0 L1,35" stroke="#9FAABA" stroke-width="2" fill="none" stroke-linecap="square" stroke-miterlimit="10"></path></g><g transform="translate(491.0 109.0)"><path d="M1,0 L1,35" stroke="#9FAABA" stroke-width="2" fill="none" stroke-linecap="square" stroke-miterlimit="10"></path></g><g transform="translate(535.0 109.0)"><path d="M1,0 L1,35" stroke="#9FAABA" stroke-width="2" fill="none" stroke-linecap="square" stroke-miterlimit="10"></path></g><g transform="translate(578.0 109.0)"><path d="M1,0 L1,35" stroke="#9FAABA" stroke-width="2" fill="none" stroke-linecap="square" stroke-miterlimit="10"></path></g><g transform="translate(131.0 179.0)"><path d="M1,0 L1,42" stroke="#9FAABA" stroke-width="2" fill="none" stroke-linecap="square" stroke-miterlimit="10"></path></g><g transform="translate(176.0 179.0)"><path d="M1.5,0 L1.5,42" stroke="#9FAABA" stroke-width="2" fill="none" stroke-linecap="square" stroke-miterlimit="10"></path></g><g transform="translate(89.0 179.0)"><path d="M1,0 L1,42" stroke="#9FAABA" stroke-width="2" fill="none" stroke-linecap="square" stroke-miterlimit="10"></path></g><g transform="translate(44.0 179.0)"><path d="M1,0 L1,42" stroke="#9FAABA" stroke-width="2" fill="none" stroke-linecap="square" stroke-miterlimit="10"></path></g><g transform="translate(86.0 109.0)"><path d="M1,0 L1,35" stroke="#9FAABA" stroke-width="2" fill="none" stroke-linecap="square" stroke-miterlimit="10"></path></g><g transform="translate(198.0 144.0)"><path d="M1,0 L1,35" stroke="#9FAABA" stroke-width="2" fill="none" stroke-linecap="square" stroke-miterlimit="10"></path></g><g transform="translate(245.0 74.0)"><path d="M1,0 L1,35" stroke="#9FAABA" stroke-width="2" fill="none" stroke-linecap="square" stroke-miterlimit="10"></path></g><g transform="translate(245.0 144.0)"><path d="M1,0 L1,35" stroke="#9FAABA" stroke-width="2" fill="none" stroke-linecap="square" stroke-miterlimit="10"></path></g><g transform="translate(289.0 74.0)"><path d="M1,0 L1,35" stroke="#9FAABA" stroke-width="2" fill="none" stroke-linecap="square" stroke-miterlimit="10"></path></g><g transform="translate(289.0 144.0)"><path d="M1,0 L1,35" stroke="#9FAABA" stroke-width="2" fill="none" stroke-linecap="square" stroke-miterlimit="10"></path></g><g transform="translate(334.0 74.0)"><path d="M1,0 L1,35" stroke="#9FAABA" stroke-width="2" fill="none" stroke-linecap="square" stroke-miterlimit="10"></path></g><g transform="translate(334.0 144.0)"><path d="M1,0 L1,35" stroke="#9FAABA" stroke-width="2" fill="none" stroke-linecap="square" stroke-miterlimit="10"></path></g><g transform="translate(379.0 74.0)"><path d="M1,0 L1,35" stroke="#9FAABA" stroke-width="2" fill="none" stroke-linecap="square" stroke-miterlimit="10"></path></g><g transform="translate(379.0 144.0)"><path d="M1,0 L1,35" stroke="#9FAABA" stroke-width="2" fill="none" stroke-linecap="square" stroke-miterlimit="10"></path></g><g transform="translate(470.0 74.0)"><path d="M1,0 L1,35" stroke="#9FAABA" stroke-width="2" fill="none" stroke-linecap="square" stroke-miterlimit="10"></path></g><g transform="translate(470.0 144.0)"><path d="M1,0 L1,77" stroke="#9FAABA" stroke-width="2" fill="none" stroke-linecap="square" stroke-miterlimit="10"></path></g><g transform="translate(514.0 74.0)"><path d="M1,0 L1,35" stroke="#9FAABA" stroke-width="2" fill="none" stroke-linecap="square" stroke-miterlimit="10"></path></g><g transform="translate(514.0 144.0)"><path d="M1,0 L1,77" stroke="#9FAABA" stroke-width="2" fill="none" stroke-linecap="square" stroke-miterlimit="10"></path></g><g transform="translate(558.0 74.0)"><path d="M1,0 L1,35" stroke="#9FAABA" stroke-width="2" fill="none" stroke-linecap="square" stroke-miterlimit="10"></path></g><g transform="translate(558.0 144.0)"><path d="M1,0 L1,77" stroke="#9FAABA" stroke-width="2" fill="none" stroke-linecap="square" stroke-miterlimit="10"></path></g><g transform="translate(602.0 74.0)"><path d="M1,0 L1,35" stroke="#9FAABA" stroke-width="2" fill="none" stroke-linecap="square" stroke-miterlimit="10"></path></g><g transform="translate(602.0 144.0)"><path d="M1,0 L1,77" stroke="#9FAABA" stroke-width="2" fill="none" stroke-linecap="square" stroke-miterlimit="10"></path></g><g transform="translate(426.0 74.0)"><path d="M1,0 L1,35" stroke="#9FAABA" stroke-width="2" fill="none" stroke-linecap="square" stroke-miterlimit="10"></path></g><g transform="translate(426.0 144.0)"><path d="M1,0 L1,77" stroke="#9FAABA" stroke-width="2" fill="none" stroke-linecap="square" stroke-miterlimit="10"></path></g><g transform="translate(402.0 39.0)"><path d="M1,0 L1,35" stroke="#9FAABA" stroke-width="2" fill="none" stroke-linecap="square" stroke-miterlimit="10"></path></g><g transform="translate(449.0 39.0)"><path d="M1,0 L1,35" stroke="#9FAABA" stroke-width="2" fill="none" stroke-linecap="square" stroke-miterlimit="10"></path></g><g transform="translate(493.0 39.0)"><path d="M1,0 L1,35" stroke="#9FAABA" stroke-width="2" fill="none" stroke-linecap="square" stroke-miterlimit="10"></path></g><g transform="translate(537.0 39.0)"><path d="M1,0 L1,35" stroke="#9FAABA" stroke-width="2" fill="none" stroke-linecap="square" stroke-miterlimit="10"></path></g><g transform="translate(582.0 39.0)"><path d="M1,0 L1,35" stroke="#9FAABA" stroke-width="2" fill="none" stroke-linecap="square" stroke-miterlimit="10"></path></g><g transform="translate(426.0 0.0)"><path d="M0.5,0.5 L0.5,37.5" stroke="#9FAABA" stroke-width="2" fill="none" stroke-linecap="square" stroke-miterlimit="10"></path></g><g transform="translate(470.0 0.0)"><path d="M0.5,0.5 L0.5,37.5" stroke="#9FAABA" stroke-width="2" fill="none" stroke-linecap="square" stroke-miterlimit="10"></path></g><g transform="translate(514.0 0.0)"><path d="M0.5,0.5 L0.5,37.5" stroke="#9FAABA" stroke-width="2" fill="none" stroke-linecap="square" stroke-miterlimit="10"></path></g><g transform="translate(558.0 0.0)"><path d="M0.5,0.5 L0.5,37.5" stroke="#9FAABA" stroke-width="2" fill="none" stroke-linecap="square" stroke-miterlimit="10"></path></g><g transform="translate(602.0 0.0)"><path d="M0.5,0.5 L0.5,37.5" stroke="#9FAABA" stroke-width="2" fill="none" stroke-linecap="square" stroke-miterlimit="10"></path></g><g transform="translate(647.0 2.0)"><path d="M0.5,0.5 L1,219" stroke="#9FAABA" stroke-width="2" fill="none" stroke-linecap="square" stroke-miterlimit="10"></path></g><g transform="translate(357.0 39.0)"><path d="M1,0 L1,35" stroke="#9FAABA" stroke-width="2" fill="none" stroke-linecap="square" stroke-miterlimit="10"></path></g></g><g transform="translate(178.0 337.0)"><g clip-path="url(#i7)"><path d="M10,0 L30,0 C35.5228475,-1.01453063e-15 40,4.4771525 40,10 C40,15.5228475 35.5228475,20 30,20 L10,20 C4.4771525,20 3.38176876e-16,15.5228475 0,10 C-6.76353751e-16,4.4771525 4.4771525,6.76353751e-16 10,0 Z" stroke="#9FAABA" stroke-width="4" fill="none" stroke-miterlimit="5"></path></g><g transform="translate(48.0 0.0)"><g clip-path="url(#i7)"><path d="M10,0 L30,0 C35.5228475,-1.01453063e-15 40,4.4771525 40,10 C40,15.5228475 35.5228475,20 30,20 L10,20 C4.4771525,20 3.38176876e-16,15.5228475 0,10 C-6.76353751e-16,4.4771525 4.4771525,6.76353751e-16 10,0 Z" stroke="#9FAABA" stroke-width="4" fill="none" stroke-miterlimit="5"></path></g></g><g transform="translate(96.0 0.0)"><g clip-path="url(#i7)"><path d="M10,0 L30,0 C35.5228475,-1.01453063e-15 40,4.4771525 40,10 C40,15.5228475 35.5228475,20 30,20 L10,20 C4.4771525,20 3.38176876e-16,15.5228475 0,10 C-6.76353751e-16,4.4771525 4.4771525,6.76353751e-16 10,0 Z" stroke="#9FAABA" stroke-width="4" fill="none" stroke-miterlimit="5"></path></g></g><g transform="translate(535.0 0.0)"><g clip-path="url(#i7)"><path d="M10,0 L30,0 C35.5228475,-1.01453063e-15 40,4.4771525 40,10 C40,15.5228475 35.5228475,20 30,20 L10,20 C4.4771525,20 3.38176876e-16,15.5228475 0,10 C-6.76353751e-16,4.4771525 4.4771525,6.76353751e-16 10,0 Z" stroke="#9FAABA" stroke-width="4" fill="none" stroke-miterlimit="5"></path></g></g><g transform="translate(583.0 0.0)"><g clip-path="url(#i7)"><path d="M10,0 L30,0 C35.5228475,-1.01453063e-15 40,4.4771525 40,10 C40,15.5228475 35.5228475,20 30,20 L10,20 C4.4771525,20 3.38176876e-16,15.5228475 0,10 C-6.76353751e-16,4.4771525 4.4771525,6.76353751e-16 10,0 Z" stroke="#9FAABA" stroke-width="4" fill="none" stroke-miterlimit="5"></path></g></g></g><g transform="translate(30.0 30.0)"><path d="M91.4508825,105 L824.553057,105 C824.837462,105 825.108413,104.8789 825.298112,104.667002 L917.503266,1.67188337 C917.871641,1.26040047 917.836696,0.628200593 917.425213,0.259825423 C917.241271,0.0951539802 917.002917,0.0043462097 916.756034,0.00488349437 L2.2114424,1.99518729 C1.65915896,1.99638921 1.21241912,2.44507775 1.21362105,2.99736119 C1.21415015,3.24048428 1.30323278,3.47508766 1.46420564,3.6572877 L90.7014694,104.662103 C90.8912885,104.876953 91.1641912,105 91.4508825,105 Z" stroke="#9FAABA" stroke-width="2" fill="none" stroke-miterlimit="10"></path></g><g transform="translate(25.0 25.0)"><path d="M0,0.5 L928,0.5" stroke="#9FAABA" stroke-width="2" fill="none" stroke-linecap="square" stroke-miterlimit="10"></path></g><g transform="translate(25.0 0.0)"><path d="M0,0.5 L928,0.5" stroke="#9FAABA" stroke-width="2" fill="none" stroke-linecap="square" stroke-miterlimit="10"></path></g><g transform="translate(750.0 139.0) scale(-1.0 1.0)"><path d="M2,0 C-0.666666667,7.32429283 -0.666666667,15.6576262 2,25" stroke="#9FAABA" stroke-width="2" fill="none" stroke-miterlimit="10"></path></g><g transform="translate(228.0 139.0)"><path d="M2,0 C-0.666666667,7.32429283 -0.666666667,15.6576262 2,25" stroke="#9FAABA" stroke-width="2" fill="none" stroke-miterlimit="10"></path></g><g transform="translate(846.9389047539905 138.5)"><path d="M0,0 C18.1427138,0 20.8734031,13.0481238 20.8734031,15.1262489 C20.8734031,17.2043739 20.8734031,25.5 13.0610952,25.5" stroke="#9FAABA" stroke-width="2" fill="none" stroke-miterlimit="10"></path></g><g transform="translate(130.81230783385473 138.5) scale(-1.0 1.0)"><path d="M0,0 C18.1427138,0 20.8734031,12.3288824 20.8734031,15.1262489 C20.8734031,17.9236154 20.8734031,25.5 13.0610952,25.5" stroke="#9FAABA" stroke-width="2" fill="none" stroke-miterlimit="10"></path></g><g transform="translate(977.0 10.0)"><path d="M1,0 L1,19" stroke="#9FAABA" stroke-width="2" fill="none" stroke-linecap="square" stroke-miterlimit="10"></path></g><g transform="translate(953.5 0.5)"><path d="M0,0 C9.04575588,0 15.2289929,0.669245498 18.5497111,2.00773649 C22.5165704,3.82725055 24.5,6.32467171 24.5,9.5" stroke="#9FAABA" stroke-width="2" fill="none" stroke-miterlimit="10"></path></g><g transform="translate(879.0 39.0)"><path d="M93.5,0.5 L0.5,99.5" stroke="#9FAABA" stroke-width="2" fill="none" stroke-linecap="square" stroke-miterlimit="10"></path></g><g transform="translate(863.9566196564795 138.5)"><path d="M15.5433803,0 C11.3480657,4.26866634 6.16693888,6.36793796 0,6.29781483" stroke="#9FAABA" stroke-width="2" fill="none" stroke-miterlimit="10"></path></g><g transform="translate(972.5 29.0)"><path d="M5.5,0 C5.5,4.61123233 2.31588368,8.15248841 0,10.5" stroke="#9FAABA" stroke-width="2" fill="none" stroke-miterlimit="10"></path></g><g transform="translate(953.5000000000001 25.49962019159606)"><path d="M0,0.000379808404 C7.33862846,0.000379808404 13.3790255,-0.0687326841 17.6610589,1.65762887 C21.6528714,3.26698381 24.1947017,6.59602229 22.7545474,8.75037981" stroke="#9FAABA" stroke-width="2" fill="none" stroke-miterlimit="10"></path></g><g transform="translate(6.0 39.0)"><path d="M0.5,0.5 L94.5,100.5" stroke="#9FAABA" stroke-width="2" fill="none" stroke-linecap="square" stroke-miterlimit="10"></path></g><g transform="translate(100.5 139.5)"><path d="M0,0 C3.54357882,3.5660134 7.98690034,5.38818972 13.3299646,5.46652896" stroke="#9FAABA" stroke-width="2" fill="none" stroke-miterlimit="10"></path></g><g transform="translate(0.0 10.0)"><path d="M0.5,0.5 L0.5,20.5" stroke="#9FAABA" stroke-width="2" fill="none" stroke-linecap="square" stroke-miterlimit="10"></path></g><g transform="translate(0.5 0.48308229819142934)"><path d="M0,10.0169176 C0,8.21886035 2.13418032,3.78798998 7.61874922,1.69664833 C12.8249878,-0.288562142 21.3061809,0.0169177018 24.5,0.0169177018" stroke="#9FAABA" stroke-width="2" fill="none" stroke-miterlimit="10"></path></g><g transform="translate(0.5 31.0)"><path d="M0,0 C0,3.73706723 4.02257191,6.13303663 6,8.5" stroke="#9FAABA" stroke-width="2" fill="none" stroke-miterlimit="10"></path></g><g transform="translate(1.4576580540555604 25.49999999999986)"><path d="M0,8.32160555 C0,5.84715199 2.23745526,2.10902406 7.76788926,1.06804825 C13.4421521,0 20.9193027,0 23.5423419,0" stroke="#9FAABA" stroke-width="2" fill="none" stroke-miterlimit="10"></path></g><g transform="translate(130.81230783385473 138.0)"><path d="M0,0.5 L716.126597,0.5" stroke="#9FAABA" stroke-width="2" fill="none" stroke-linecap="square" stroke-miterlimit="10"></path></g><g transform="translate(827.0 340.0)"><g clip-path="url(#i8)"><polygon points="0,0 26,0 26,12 0,12 0,0" stroke="none" fill="#9FAABA"></polygon><path d="M3,0 C4.65685425,-3.04359188e-16 6,1.34314575 6,3 L6,9 C6,10.6568542 4.65685425,12 3,12 C1.34314575,12 1.01453063e-16,10.6568542 0,9 L0,3 C-2.02906125e-16,1.34314575 1.34314575,2.02906125e-16 3,0 Z M13,0 C14.6568542,-3.04359188e-16 16,1.34314575 16,3 L16,9 C16,10.6568542 14.6568542,12 13,12 C11.3431458,12 10,10.6568542 10,9 L10,3 C10,1.34314575 11.3431458,2.02906125e-16 13,0 Z M23,0 C24.6568542,-3.04359188e-16 26,1.34314575 26,3 L26,9 C26,10.6568542 24.6568542,12 23,12 C21.3431458,12 20,10.6568542 20,9 L20,3 C20,1.34314575 21.3431458,2.02906125e-16 23,0 Z" stroke="#9FAABA" stroke-width="2" fill="none" stroke-miterlimit="5"></path></g></g><g transform="translate(125.0 340.0)"><g clip-path="url(#i8)"><polygon points="0,0 26,0 26,12 0,12 0,0" stroke="none" fill="#9FAABA"></polygon><path d="M3,0 C4.65685425,-3.04359188e-16 6,1.34314575 6,3 L6,9 C6,10.6568542 4.65685425,12 3,12 C1.34314575,12 1.01453063e-16,10.6568542 0,9 L0,3 C-2.02906125e-16,1.34314575 1.34314575,2.02906125e-16 3,0 Z M13,0 C14.6568542,-3.04359188e-16 16,1.34314575 16,3 L16,9 C16,10.6568542 14.6568542,12 13,12 C11.3431458,12 10,10.6568542 10,9 L10,3 C10,1.34314575 11.3431458,2.02906125e-16 13,0 Z M23,0 C24.6568542,-3.04359188e-16 26,1.34314575 26,3 L26,9 C26,10.6568542 24.6568542,12 23,12 C21.3431458,12 20,10.6568542 20,9 L20,3 C20,1.34314575 21.3431458,2.02906125e-16 23,0 Z" stroke="#9FAABA" stroke-width="2" fill="none" stroke-miterlimit="5"></path></g></g><g transform="translate(702.0 181.0)"><g clip-path="url(#i9)"><polygon points="0,0 6,0 6,6 0,6 0,0" stroke="none" fill="#9FAABA"></polygon><path d="M3,6 C4.65685425,6 6,4.65685425 6,3 C6,1.34314575 4.65685425,0 3,0 C1.34314575,0 0,1.34314575 0,3 C0,4.65685425 1.34314575,6 3,6 Z" stroke="#9FAABA" stroke-width="2" fill="none" stroke-miterlimit="5"></path></g></g></g></g></g></svg>