<?xml version="1.0" encoding="UTF-8"?><svg version="1.1" width="500px" height="500px" viewBox="0 0 500.0 500.0" xmlns="http://www.w3.org/2000/svg" xmlns:xlink="http://www.w3.org/1999/xlink"><defs><clipPath id="i0"><path d="M500,0 L500,500 L0,500 L0,0 L500,0 Z"></path></clipPath><clipPath id="i1"><path d="M390,0 C450.751322,0 500,49.2486775 500,110 C500,170.751322 450.751322,220 390,220 L110,220 C49.2486775,220 3.71994563e-15,170.751322 0,110 C-7.43989126e-15,49.2486775 49.2486775,0 110,0 L390,0 Z M132.64,64.32 C111.88,64.32 98.56,74.76 98.56,90.36 C98.56,104.28 109.48,111.48 126.88,114.48 L143.92,117.48 C151.36,118.8 154.96,120.96 154.96,125.64 C154.96,132.6 147.64,135.12 137.8,135.12 C124.12,135.12 111.64,129.12 103.36,121.08 L93.88,134.28 C101.08,141.84 116.2,151.68 137.44,151.68 C160.12,151.68 174.76,141.48 174.76,124.44 C174.76,108.96 164.56,102.36 147.16,99.48 L131.2,96.84 C122.68,95.52 117.88,93.36 117.88,88.92 C117.76,83.76 122.8,80.64 132.28,80.64 C144.16,80.64 155.32,84.48 165.64,90.72 L172.72,76.2 C160.6,69 148.72,64.32 132.64,64.32 Z M264.76,88.08 C248.2,88.08 237.28,96.96 235.84,108.48 L253.72,108.48 C254.08,105 257.2,101.52 264.28,101.52 C270.28,101.52 274.48,104.4 274.48,111.6 L274.48,112.92 L258.76,113.28 C243.64,113.64 235.24,119.88 235.24,132.24 C235.24,143.76 243.52,151.32 255.88,151.32 C265.24,151.32 271.84,147 275.56,141.6 C275.92,145.32 276.64,148.8 277,150 L294.4,150 C293.08,147 291.76,138 291.76,131.64 L291.76,113.16 C291.76,98.04 282.4,88.08 264.76,88.08 Z M210.16,66.72 L192.04,75.12 L192.04,89.52 L180.04,89.52 L180.04,102.96 L192.04,102.96 L192.04,133.44 C192.04,143.52 198.16,150 210.88,150 L228.64,150 L228.64,135.24 L216.88,135.24 C211.84,135.24 210.16,133.2 210.16,128.88 L210.16,102.96 L223.72,102.96 L223.72,89.52 L210.16,89.52 L210.16,66.72 Z M341.92,88.44 C334.12,88.44 328.36,94.44 325.36,101.64 L325.36,89.52 L307.6,89.52 L307.6,150 L325.72,150 L325.72,118.8 C325.72,109.8 329.92,104.88 334.6,104.88 C337.84,104.88 339.64,107.4 339.64,111.84 L339.64,115.2 L355.6,115.2 L355.6,108.72 C355.6,97.32 352,88.44 341.92,88.44 Z M390.4,66.72 L372.28,75.12 L372.28,89.52 L360.28,89.52 L360.28,102.96 L372.28,102.96 L372.28,133.44 C372.28,143.52 378.4,150 391.12,150 L408.88,150 L408.88,135.24 L397.12,135.24 C392.08,135.24 390.4,133.2 390.4,128.88 L390.4,102.96 L403.96,102.96 L403.96,89.52 L390.4,89.52 L390.4,66.72 Z M274.48,124.8 L274.48,129.72 C273.64,134.88 266.92,137.88 261.16,137.88 C255.88,137.88 252.64,135.6 252.64,131.4 C252.64,127.32 255.88,125.4 261.16,125.16 L274.48,124.8 Z"></path></clipPath></defs><g clip-path="url(#i0)"><g transform="translate(-1.0 140.0)"><g clip-path="url(#i1)"><polygon points="1,0 500,0 500,220 1,220 1,0" stroke="none" fill="#FFFFFF"></polygon></g></g></g></svg>