<?xml version="1.0" encoding="UTF-8"?><svg version="1.1" width="500px" height="500px" viewBox="0 0 500.0 500.0" xmlns="http://www.w3.org/2000/svg" xmlns:xlink="http://www.w3.org/1999/xlink"><defs><clipPath id="i0"><path d="M500,0 L500,500 L0,500 L0,0 L500,0 Z"></path></clipPath><clipPath id="i1"><path d="M390,0 C450.751322,0 500,49.2486775 500,110 C500,170.751322 450.751322,220 390,220 L110,220 C49.2486775,220 3.71994563e-15,170.751322 0,110 C-7.43989126e-15,49.2486775 49.2486775,0 110,0 L390,0 Z M218.12,66.12 L173.72,66.12 L173.72,150 L192.56,150 L192.56,118.92 L211.52,118.92 C221.48,118.92 226.04,123.48 227.24,133.68 L229.16,150 L249.44,150 L246.32,130.08 C244.52,118.56 239.12,112.44 231.08,110.52 C239.24,108.12 247.4,101.4 247.4,90 C247.4,75.12 236.72,66.12 218.12,66.12 Z M317.96,66 L300.32,66 L257.6,113.28 L257.6,130.92 L299.84,130.92 L299.84,150 L317.96,150 L317.96,130.92 L331.16,130.92 L331.16,116.04 L317.96,116.04 L317.96,66 Z M299.84,88.32 L299.84,116.04 L275.6,116.04 L299.84,88.32 Z M214.04,82.08 C222.2,82.08 227.72,84.84 227.72,91.92 C227.72,99.6 222.08,102.96 213.32,102.96 L192.56,102.96 L192.56,82.08 L214.04,82.08 Z"></path></clipPath></defs><g clip-path="url(#i0)"><g transform="translate(-1.0 140.0)"><g clip-path="url(#i1)"><polygon points="1,0 500,0 500,220 1,220 1,0" stroke="none" fill="#FFFFFF"></polygon></g></g></g></svg>