<?xml version="1.0" encoding="UTF-8"?><svg version="1.1" width="500px" height="500px" viewBox="0 0 500.0 500.0" xmlns="http://www.w3.org/2000/svg" xmlns:xlink="http://www.w3.org/1999/xlink"><defs><clipPath id="i0"><path d="M500,0 L500,500 L0,500 L0,0 L500,0 Z"></path></clipPath><clipPath id="i1"><path d="M390,0 C450.751322,0 500,49.2486775 500,110 C500,170.751322 450.751322,220 390,220 L110,220 C49.2486775,220 3.71994563e-15,170.751322 0,110 C-7.43989126e-15,49.2486775 49.2486775,0 110,0 L390,0 Z M201.56,66 L182.72,66 L182.72,150 L244.28,150 L244.28,133.56 L201.56,133.56 L201.56,66 Z M309.44,66 L291.8,66 L249.08,113.28 L249.08,130.92 L291.32,130.92 L291.32,150 L309.44,150 L309.44,130.92 L322.64,130.92 L322.64,116.04 L309.44,116.04 L309.44,66 Z M291.32,88.32 L291.32,116.04 L267.08,116.04 L291.32,88.32 Z"></path></clipPath></defs><g clip-path="url(#i0)"><g transform="translate(-1.0 140.0)"><g clip-path="url(#i1)"><polygon points="1,0 500,0 500,220 1,220 1,0" stroke="none" fill="#FFFFFF"></polygon></g></g></g></svg>