<?xml version="1.0" encoding="UTF-8"?><svg version="1.1" width="500px" height="500px" viewBox="0 0 500.0 500.0" xmlns="http://www.w3.org/2000/svg" xmlns:xlink="http://www.w3.org/1999/xlink"><defs><clipPath id="i0"><path d="M500,0 L500,500 L0,500 L0,0 L500,0 Z"></path></clipPath><clipPath id="i1"><path d="M390,0 C450.751322,0 500,49.2486775 500,110 C500,170.751322 450.751322,220 390,220 L110,220 C49.2486775,220 3.71994563e-15,170.751322 0,110 C-7.43989126e-15,49.2486775 49.2486775,0 110,0 L390,0 Z M100.64,64.32 C79.88,64.32 66.56,74.76 66.56,90.36 C66.56,104.28 77.48,111.48 94.88,114.48 L111.92,117.48 C119.36,118.8 122.96,120.96 122.96,125.64 C122.96,132.6 115.64,135.12 105.8,135.12 C92.12,135.12 79.64,129.12 71.36,121.08 L61.88,134.28 C69.08,141.84 84.2,151.68 105.44,151.68 C128.12,151.68 142.76,141.48 142.76,124.44 C142.76,108.96 132.56,102.36 115.16,99.48 L99.2,96.84 C90.68,95.52 85.88,93.36 85.88,88.92 C85.76,83.76 90.8,80.64 100.28,80.64 C112.16,80.64 123.32,84.48 133.64,90.72 L140.72,76.2 C128.6,69 116.72,64.32 100.64,64.32 Z M182.36,88.56 C163.76,88.56 151.64,101.16 151.64,120.24 C151.64,139.08 163.88,151.44 182.6,151.44 C198.92,151.44 209.12,142.56 211.4,130.68 L193.88,130.68 C192.68,134.76 188.96,137.28 182.96,137.28 C175.64,137.28 170.84,132 170.24,123 L212,123 L212,119.28 C212,101.64 201.44,88.56 182.36,88.56 Z M285.8,88.56 C267.2,88.56 255.08,101.16 255.08,120.24 C255.08,139.08 267.32,151.44 286.04,151.44 C302.36,151.44 312.56,142.56 314.84,130.68 L297.32,130.68 C296.12,134.76 292.4,137.28 286.4,137.28 C279.08,137.28 274.28,132 273.68,123 L315.44,123 L315.44,119.28 C315.44,101.64 304.88,88.56 285.8,88.56 Z M354.68,88.56 C335.84,88.56 324.2,101.52 324.2,120.12 C324.2,138.6 335.72,151.44 354.56,151.44 C371.6,151.44 382.4,141.48 383.84,125.88 L365.72,125.88 C364.88,132.6 361.28,137.16 354.68,137.16 C347.24,137.16 342.56,130.92 342.56,120 C342.56,109.2 347.24,102.84 354.56,102.84 C361.16,102.84 365,106.92 365.84,113.4 L384.2,113.4 C382.52,98.16 371.84,88.56 354.68,88.56 Z M242.72,66 L224.6,66 L224.6,150 L242.72,150 L242.72,66 Z M419,66.72 L400.88,75.12 L400.88,89.52 L388.88,89.52 L388.88,102.96 L400.88,102.96 L400.88,133.44 C400.88,143.52 407,150 419.72,150 L437.48,150 L437.48,135.24 L425.72,135.24 C420.68,135.24 419,133.2 419,128.88 L419,102.96 L432.56,102.96 L432.56,89.52 L419,89.52 L419,66.72 Z M182.36,102 C188.24,102 192.56,105.36 193.28,110.88 L170.72,110.88 C171.92,105.72 176.36,102 182.36,102 Z M285.8,102 C291.68,102 296,105.36 296.72,110.88 L274.16,110.88 C275.36,105.72 279.8,102 285.8,102 Z"></path></clipPath></defs><g clip-path="url(#i0)"><g transform="translate(0.0 140.0)"><g clip-path="url(#i1)"><polygon points="0,0 500,0 500,220 0,220 0,0" stroke="none" fill="#FFFFFF"></polygon></g></g></g></svg>