<?xml version="1.0" encoding="UTF-8"?><svg version="1.1" width="500px" height="500px" viewBox="0 0 500.0 500.0" xmlns="http://www.w3.org/2000/svg" xmlns:xlink="http://www.w3.org/1999/xlink"><defs><clipPath id="i0"><path d="M500,0 L500,500 L0,500 L0,0 L500,0 Z"></path></clipPath><clipPath id="i1"><path d="M395,-5 C452.989899,-5 500,42.0101013 500,100 C500,157.989899 452.989899,205 395,205 L105,205 C47.0101013,205 -1.06599975e-14,157.989899 0,100 C-7.10171439e-15,42.0101013 47.0101013,-5 105,-5 L395,-5 Z M218.12,57.12 L173.72,57.12 L173.72,141 L192.56,141 L192.56,109.92 L211.52,109.92 C221.48,109.92 226.04,114.48 227.24,124.68 L229.16,141 L249.44,141 L246.32,121.08 C244.52,109.56 239.12,103.44 231.08,101.52 C239.24,99.12 247.4,92.4 247.4,81 C247.4,66.12 236.72,57.12 218.12,57.12 Z M317.96,57 L300.32,57 L257.6,104.28 L257.6,121.92 L299.84,121.92 L299.84,141 L317.96,141 L317.96,121.92 L331.16,121.92 L331.16,107.04 L317.96,107.04 L317.96,57 Z M299.84,79.32 L299.84,107.04 L275.6,107.04 L299.84,79.32 Z M214.04,73.08 C222.2,73.08 227.72,75.84 227.72,82.92 C227.72,90.6 222.08,93.96 213.32,93.96 L192.56,93.96 L192.56,73.08 L214.04,73.08 Z"></path></clipPath></defs><g clip-path="url(#i0)"><g transform="translate(-1.0 150.0)"><g clip-path="url(#i1)"><polygon points="1,-5 500,-5 500,205 1,205 1,-5" stroke="none" fill="#FFFFFF"></polygon></g></g></g></svg>