<?xml version="1.0" encoding="UTF-8"?><svg version="1.1" width="500px" height="500px" viewBox="0 0 500.0 500.0" xmlns="http://www.w3.org/2000/svg" xmlns:xlink="http://www.w3.org/1999/xlink"><defs><clipPath id="i0"><path d="M500,0 L500,500 L0,500 L0,0 L500,0 Z"></path></clipPath><clipPath id="i1"><path d="M390,0 C450.751322,0 500,49.2486775 500,110 C500,170.751322 450.751322,220 390,220 L110,220 C49.2486775,220 3.71994563e-15,170.751322 0,110 C-7.43989126e-15,49.2486775 49.2486775,0 110,0 L390,0 Z M234.16,89.56 C215.56,89.56 203.44,102.16 203.44,121.24 C203.44,140.08 215.68,152.44 234.4,152.44 C250.72,152.44 260.92,143.56 263.2,131.68 L245.68,131.68 C244.48,135.76 240.76,138.28 234.76,138.28 C227.44,138.28 222.64,133 222.04,124 L263.8,124 L263.8,120.28 C263.8,102.64 253.24,89.56 234.16,89.56 Z M367,90.52 L348.88,90.52 L348.88,127.84 C348.88,142.96 356.44,151.96 369.04,151.96 C377.08,151.96 383.92,146.92 388.48,140.68 L388.48,151 L406.24,151 L406.24,90.52 L388.12,90.52 L388.12,119.56 C388.12,130.48 382.24,136.24 375.76,136.24 C369.28,136.24 367,131.92 367,123.04 L367,90.52 Z M126.16,67 L94.72,67 L94.72,151 L112.6,151 L112.6,79.36 L134.92,151 L149.44,151 L171.76,79.48 L171.76,151 L190.6,151 L190.6,67 L158.92,67 L142.96,118.96 L126.16,67 Z M313.72,89.56 C305.56,89.56 298.72,94.72 294.16,100.96 L294.16,90.52 L276.4,90.52 L276.4,151 L294.52,151 L294.52,121.96 C294.52,111.04 300.52,105.28 307,105.28 C313.36,105.28 315.76,109.6 315.76,118.48 L315.76,151 L333.88,151 L333.88,113.8 C333.88,98.56 326.32,89.56 313.72,89.56 Z M234.16,103 C240.04,103 244.36,106.36 245.08,111.88 L222.52,111.88 C223.72,106.72 228.16,103 234.16,103 Z"></path></clipPath></defs><g clip-path="url(#i0)"><g transform="translate(0.0 140.0)"><g clip-path="url(#i1)"><polygon points="0,0 500,0 500,220 0,220 0,0" stroke="none" fill="#FFFFFF"></polygon></g></g></g></svg>