<?xml version="1.0" encoding="UTF-8"?><svg version="1.1" width="500px" height="500px" viewBox="0 0 500.0 500.0" xmlns="http://www.w3.org/2000/svg" xmlns:xlink="http://www.w3.org/1999/xlink"><defs><clipPath id="i0"><path d="M500,0 L500,500 L0,500 L0,0 L500,0 Z"></path></clipPath><clipPath id="i1"><path d="M395,-5 C452.989899,-5 500,42.0101013 500,100 C500,157.989899 452.989899,205 395,205 L105,205 C47.0101013,205 -1.06599975e-14,157.989899 0,100 C-7.10171439e-15,42.0101013 47.0101013,-5 105,-5 L395,-5 Z M202.56,56 L183.72,56 L183.72,140 L245.28,140 L245.28,123.56 L202.56,123.56 L202.56,56 Z M310.44,56 L292.8,56 L250.08,103.28 L250.08,120.92 L292.32,120.92 L292.32,140 L310.44,140 L310.44,120.92 L323.64,120.92 L323.64,106.04 L310.44,106.04 L310.44,56 Z M292.32,78.32 L292.32,106.04 L268.08,106.04 L292.32,78.32 Z"></path></clipPath></defs><g clip-path="url(#i0)"><g transform="translate(-1.0 150.0)"><g clip-path="url(#i1)"><polygon points="1,-5 500,-5 500,205 1,205 1,-5" stroke="none" fill="#FFFFFF"></polygon></g></g></g></svg>