<?xml version="1.0" encoding="UTF-8"?><svg version="1.1" width="872px" height="360px" viewBox="0 0 872.0 360.0" xmlns="http://www.w3.org/2000/svg" xmlns:xlink="http://www.w3.org/1999/xlink"><defs><clipPath id="i0"><path d="M872,0 L872,360 L0,360 L0,0 L872,0 Z"></path></clipPath><clipPath id="i1"><path d="M35,0 C54.3299662,0 70,15.6700338 70,35 C70,54.3299662 54.3299662,70 35,70 C15.6700338,70 0,54.3299662 0,35 C0,15.6700338 15.6700338,0 35,0 Z"></path></clipPath><clipPath id="i2"><path d="M27,0 C41.9116882,0 54,12.0883118 54,27 C54,41.9116882 41.9116882,54 27,54 C12.0883118,54 0,41.9116882 0,27 C0,12.0883118 12.0883118,0 27,0 Z"></path></clipPath><clipPath id="i3"><path d="M18,0 C27.9411255,0 36,8.0588745 36,18 C36,27.9411255 27.9411255,36 18,36 C8.0588745,36 0,27.9411255 0,18 C0,8.0588745 8.0588745,0 18,0 Z"></path></clipPath><clipPath id="i4"><path d="M11.5,0 C17.8512746,0 23,5.14872538 23,11.5 C23,17.8512746 17.8512746,23 11.5,23 C5.14872538,23 0,17.8512746 0,11.5 C0,5.14872538 5.14872538,0 11.5,0 Z"></path></clipPath><clipPath id="i5"><path d="M40.5,55 C47.4035594,55 53,60.5964406 53,67.5 C53,74.4035594 47.4035594,80 40.5,80 C33.5964406,80 28,74.4035594 28,67.5 C28,60.5964406 33.5964406,55 40.5,55 Z M12.5,27 C19.4035594,27 25,32.5964406 25,39.5 C25,46.4035594 19.4035594,52 12.5,52 C5.59644063,52 0,46.4035594 0,39.5 C0,32.5964406 5.59644063,27 12.5,27 Z M67.5,27 C74.4035594,27 80,32.5964406 80,39.5 C80,46.4035594 74.4035594,52 67.5,52 C60.5964406,52 55,46.4035594 55,39.5 C55,32.5964406 60.5964406,27 67.5,27 Z M40.5,0 C47.4035594,0 53,5.59644063 53,12.5 C53,19.4035594 47.4035594,25 40.5,25 C33.5964406,25 28,19.4035594 28,12.5 C28,5.59644063 33.5964406,0 40.5,0 Z"></path></clipPath></defs><g clip-path="url(#i0)"><g transform="translate(167.54576806812366 33.43170010774489)"><g transform="translate(538.9084638637524 0.0) scale(-1.0 1.0)"><g transform="translate(29.503968187163736 9.578304471791881)"><path d="M239.904418,0.500522798 L0.500844297,0.500522798 M0.500844297,0.500522798 L0.500844297,269.781788 M0.500844297,269.781788 L239.904418,269.781788" stroke="#9FAABA" stroke-width="2" fill="none" stroke-linecap="square" stroke-miterlimit="10"></path></g><g transform="translate(0.0 0.3024933035152628)"><path d="M270.455921,0.00381912529 C94.6722818,-0.00127304176 6.25068912,-0.00127304176 5.19114254,0.00381912529 C3.60182268,0.0114573759 3.22426147,0.366831967 2.24495902,1.32073646 C1.26565657,2.27464096 1.02514627,3.75600134 1.02063369,4.06616691 C0.350102492,50.1541094 0,97.3560055 0,143.771872 C0,175.002276 0.34021123,222.009962 1.02063369,284.794931 C0.89175738,285.855411 1.29986582,286.894792 2.24495902,287.913074 C3.19005222,288.931355 4.17211339,289.389799 5.19114254,289.288404 L270.455921,289.288404" stroke="#9FAABA" stroke-width="2" fill="none" stroke-miterlimit="10"></path></g></g><g transform=""><g transform="translate(29.503968187163736 9.578304471791881)"><path d="M239.904418,0.500522798 L0.500844297,0.500522798 M0.500844297,0.500522798 L0.500844297,269.781788 M0.500844297,269.781788 L239.904418,269.781788" stroke="#9FAABA" stroke-width="2" fill="none" stroke-linecap="square" stroke-miterlimit="10"></path></g><g transform="translate(0.0 0.3024933035152628)"><path d="M270.455921,0.00381912529 C94.6722818,-0.00127304176 6.25068912,-0.00127304176 5.19114254,0.00381912529 C3.60182268,0.0114573759 3.22426147,0.366831967 2.24495902,1.32073646 C1.26565657,2.27464096 1.02514627,3.75600134 1.02063369,4.06616691 C0.350102492,50.1541094 0,97.3560055 0,143.771872 C0,175.002276 0.34021123,222.009962 1.02063369,284.794931 C0.89175738,285.855411 1.29986582,286.894792 2.24495902,287.913074 C3.19005222,288.931355 4.17211339,289.389799 5.19114254,289.288404 L270.455921,289.288404" stroke="#9FAABA" stroke-width="2" fill="none" stroke-miterlimit="10"></path></g></g></g><g transform="translate(12.085319879252097 13.879594099392506)"><g transform="translate(844.829360241498 1.1368683772161603e-13) scale(-1.0 1.0)"><g transform="translate(0.0 11.177841751579166)"><path d="M423.415663,0 L141.12418,0 C102.344853,1.25148315 76.2293859,3.59255933 62.7777788,7.02322853 C35.1251069,14.075707 16.2944212,29.8306298 12.2655894,35.8007792 C8.73553958,41.0318055 3.38700039,74.9162854 0.351465166,148.152992 C-2.68407006,221.389698 14.6471354,267.265393 25.2426282,281.026349 C35.838121,294.787305 52.6137207,310.312354 62.7777788,314.085476 C69.5538176,316.600891 77.539632,317.961149 86.7352219,318.16625 L423.415663,318.16625" stroke="#9FAABA" stroke-width="2" fill="none" stroke-miterlimit="10"></path></g><g transform="translate(142.55462452062784 3.5541432787447143)"><path d="M281.276126,0 L0,0 L1.44246113,7.94740628" stroke="#9FAABA" stroke-width="2" fill="none" stroke-miterlimit="10"></path></g><g transform="translate(19.268999591469843 0.0)"><path d="M121.659902,11.6286168 L120.232491,3.55385815 C91.9436716,3.55385815 67.883497,5.57594027 48.0519668,9.62010453 C28.2204367,13.6640787 12.2243907,20.5212398 0.063828788,30.191588 C-0.0212762627,31.2582006 -0.0212762627,32.6361154 0.063828788,34.3253325 C0.148933839,36.0145496 0.303446219,37.7034909 0.52736593,39.3921565 M11.8636866,22.5638962 C28.4313951,11.2999153 43.2074846,4.32208428 56.1919551,1.63040303 C69.1764255,-1.06127821 86.1909037,-0.42012651 107.23539,3.55385815" stroke="#9FAABA" stroke-width="2" fill="none" stroke-miterlimit="10"></path></g></g><g transform=""><g transform="translate(0.0 11.177841751579166)"><path d="M423.415663,0 L141.12418,0 C102.344853,1.25148315 76.2293859,3.59255933 62.7777788,7.02322853 C35.1251069,14.075707 16.2944212,29.8306298 12.2655894,35.8007792 C8.73553958,41.0318055 3.38700039,74.9162854 0.351465166,148.152992 C-2.68407006,221.389698 14.6471354,267.265393 25.2426282,281.026349 C35.838121,294.787305 52.6137207,310.312354 62.7777788,314.085476 C69.5538176,316.600891 77.539632,317.961149 86.7352219,318.16625 L423.415663,318.16625" stroke="#9FAABA" stroke-width="2" fill="none" stroke-miterlimit="10"></path></g><g transform="translate(142.55462452062784 3.5541432787447143)"><path d="M281.276126,0 L0,0 L1.44246113,7.94740628" stroke="#9FAABA" stroke-width="2" fill="none" stroke-miterlimit="10"></path></g><g transform="translate(19.268999591469843 0.0)"><path d="M121.659902,11.6286168 L120.232491,3.55385815 C91.9436716,3.55385815 67.883497,5.57594027 48.0519668,9.62010453 C28.2204367,13.6640787 12.2243907,20.5212398 0.063828788,30.191588 C-0.0212762627,31.2582006 -0.0212762627,32.6361154 0.063828788,34.3253325 C0.148933839,36.0145496 0.303446219,37.7034909 0.52736593,39.3921565 M11.8636866,22.5638962 C28.4313951,11.2999153 43.2074846,4.32208428 56.1919551,1.63040303 C69.1764255,-1.06127821 86.1909037,-0.42012651 107.23539,3.55385815" stroke="#9FAABA" stroke-width="2" fill="none" stroke-miterlimit="10"></path></g></g></g><g transform="translate(62.0 62.0)"><g clip-path="url(#i1)"><path d="M35,70 C54.3299662,70 70,54.3299662 70,35 C70,15.6700338 54.3299662,0 35,0 C15.6700338,0 0,15.6700338 0,35 C0,54.3299662 15.6700338,70 35,70 Z" stroke="#9FAABA" stroke-width="4" fill="none" stroke-miterlimit="5"></path></g><g transform="translate(8.0 8.0)"><g clip-path="url(#i2)"><path d="M27,54 C41.9116882,54 54,41.9116882 54,27 C54,12.0883118 41.9116882,0 27,0 C12.0883118,0 0,12.0883118 0,27 C0,41.9116882 12.0883118,54 27,54 Z" stroke="#9FAABA" stroke-width="10" fill="none" stroke-miterlimit="5"></path></g></g></g><g transform="translate(740.0 165.0)"><g clip-path="url(#i1)"><path d="M35,70 C54.3299662,70 70,54.3299662 70,35 C70,15.6700338 54.3299662,0 35,0 C15.6700338,0 0,15.6700338 0,35 C0,54.3299662 15.6700338,70 35,70 Z" stroke="#9FAABA" stroke-width="4" fill="none" stroke-miterlimit="5"></path></g><g transform="translate(8.0 8.0)"><g clip-path="url(#i2)"><path d="M27,54 C41.9116882,54 54,41.9116882 54,27 C54,12.0883118 41.9116882,0 27,0 C12.0883118,0 0,12.0883118 0,27 C0,41.9116882 12.0883118,54 27,54 Z" stroke="#9FAABA" stroke-width="10" fill="none" stroke-miterlimit="5"></path></g></g></g><g transform="translate(63.0 279.0)"><path d="M11,0 L62,0 C68.0751322,-1.11598369e-15 73,4.92486775 73,11 L73,12 C73,18.0751322 68.0751322,23 62,23 L11,23 C4.92486775,23 3.71994563e-16,18.0751322 0,12 L0,11 C-7.43989126e-16,4.92486775 4.92486775,7.43989126e-16 11,0 Z M36.5,0.5 L36.5,23.5" stroke="#9FAABA" stroke-width="2" fill="none" stroke-miterlimit="10"></path><g transform="translate(47.0 6.0)"><path d="M0.5,0.5 L11.5,0.5 M0.5,5.5 L11.5,5.5 M0.5,10.5 L11.5,10.5" stroke="#9FAABA" stroke-width="2" fill="none" stroke-linecap="square" stroke-miterlimit="10"></path></g><g transform="translate(12.44879317903441 5.499999999999985)"><path d="M4.55120682,3.5 L13.5512068,3.5 C14.1034916,3.5 14.5512068,3.94771525 14.5512068,4.5 L14.5512068,10.5 C14.5512068,11.0522847 14.1034916,11.5 13.5512068,11.5 L4.55120682,11.5 C3.99892207,11.5 3.55120682,11.0522847 3.55120682,10.5 L3.55120682,4.5 C3.55120682,3.94771525 3.99892207,3.5 4.55120682,3.5 Z M10.3182587,-2.84217094e-14 L2.0256574,-2.84217094e-14 C1.45468221,0.0231518718 0.971441524,0.240227672 0.575935324,0.651227402 C0.180429123,1.06222713 -0.0113756177,1.54664094 0.000521100476,2.10446883 L0.000521100476,8.05871142" stroke="#9FAABA" stroke-width="2" fill="none" stroke-miterlimit="10"></path></g></g><g transform="translate(736.0 272.0)"><g clip-path="url(#i3)"><path d="M18,36 C27.9411255,36 36,27.9411255 36,18 C36,8.0588745 27.9411255,0 18,0 C8.0588745,0 0,8.0588745 0,18 C0,27.9411255 8.0588745,36 18,36 Z" stroke="#9FAABA" stroke-width="4" fill="none" stroke-miterlimit="5"></path></g><g transform="translate(49.0 7.0)"><g clip-path="url(#i4)"><path d="M11.5,23 C17.8512746,23 23,17.8512746 23,11.5 C23,5.14872538 17.8512746,0 11.5,0 C5.14872538,0 0,5.14872538 0,11.5 C0,17.8512746 5.14872538,23 11.5,23 Z" stroke="#9FAABA" stroke-width="4" fill="none" stroke-miterlimit="5"></path></g></g></g><g transform="translate(739.0 56.0)"><g clip-path="url(#i5)"><path d="M12.5,52 C19.4035594,52 25,46.4035594 25,39.5 C25,32.5964406 19.4035594,27 12.5,27 C5.59644063,27 0,32.5964406 0,39.5 C0,46.4035594 5.59644063,52 12.5,52 Z M40.5,25 C47.4035594,25 53,19.4035594 53,12.5 C53,5.59644063 47.4035594,0 40.5,0 C33.5964406,0 28,5.59644063 28,12.5 C28,19.4035594 33.5964406,25 40.5,25 Z M40.5,80 C47.4035594,80 53,74.4035594 53,67.5 C53,60.5964406 47.4035594,55 40.5,55 C33.5964406,55 28,60.5964406 28,67.5 C28,74.4035594 33.5964406,80 40.5,80 Z M67.5,52 C74.4035594,52 80,46.4035594 80,39.5 C80,32.5964406 74.4035594,27 67.5,27 C60.5964406,27 55,32.5964406 55,39.5 C55,46.4035594 60.5964406,52 67.5,52 Z" stroke="#9FAABA" stroke-width="4" fill="none" stroke-miterlimit="5"></path></g></g><g transform="translate(51.60720322135285 163.99889494833332)"><g transform="translate(0.0 54.0) rotate(-90.0)"><g transform="translate(14.0 0.0) scale(-1.0 1.0)"><g transform="translate(-0.6808213792618858 0.0)"><path d="M14.6808214,26.8364379 C13.9011098,26.4164917 13.3853287,26.0096203 13.1334781,25.6158235 C12.7557021,25.0251285 12.2751447,23.4509855 12.2751447,22.8361853 C12.2751447,22.2619017 12.2751447,8.70495951 12.2751447,8.00046895 C12.2751447,6.90795243 12.5181013,4.01176198 11.6752454,3.0682351 C10.8323895,2.12470823 7.2341885,0 0,0" stroke="#9FAABA" stroke-width="2" fill="none" stroke-miterlimit="10"></path></g></g><g transform="translate(15.0 0.0)"><g transform="translate(-0.6808213792618858 0.0)"><path d="M14.6808214,26.8364379 C13.9011098,26.4164917 13.3853287,26.0096203 13.1334781,25.6158235 C12.7557021,25.0251285 12.2751447,23.4509855 12.2751447,22.8361853 C12.2751447,22.2619017 12.2751447,8.70495951 12.2751447,8.00046895 C12.2751447,6.90795243 12.5181013,4.01176198 11.6752454,3.0682351 C10.8323895,2.12470823 7.2341885,0 0,0" stroke="#9FAABA" stroke-width="2" fill="none" stroke-miterlimit="10"></path></g></g></g><g transform="translate(79.0 25.0) rotate(90.0)"><g transform="translate(14.0 0.0) scale(-1.0 1.0)"><g transform="translate(-0.6808213792618858 0.0)"><path d="M14.6808214,26.8364379 C13.9011098,26.4164917 13.3853287,26.0096203 13.1334781,25.6158235 C12.7557021,25.0251285 12.2751447,23.4509855 12.2751447,22.8361853 C12.2751447,22.2619017 12.2751447,8.70495951 12.2751447,8.00046895 C12.2751447,6.90795243 12.5181013,4.01176198 11.6752454,3.0682351 C10.8323895,2.12470823 7.2341885,0 0,0" stroke="#9FAABA" stroke-width="2" fill="none" stroke-miterlimit="10"></path></g></g><g transform="translate(15.0 0.0)"><g transform="translate(-0.6808213792618858 0.0)"><path d="M14.6808214,26.8364379 C13.9011098,26.4164917 13.3853287,26.0096203 13.1334781,25.6158235 C12.7557021,25.0251285 12.2751447,23.4509855 12.2751447,22.8361853 C12.2751447,22.2619017 12.2751447,8.70495951 12.2751447,8.00046895 C12.2751447,6.90795243 12.5181013,4.01176198 11.6752454,3.0682351 C10.8323895,2.12470823 7.2341885,0 0,0" stroke="#9FAABA" stroke-width="2" fill="none" stroke-miterlimit="10"></path></g></g></g><g transform="translate(54.0 79.0) rotate(-180.0)"><g transform="translate(14.0 0.0) scale(-1.0 1.0)"><g transform="translate(-0.6808213792618858 0.0)"><path d="M14.6808214,26.8364379 C13.9011098,26.4164917 13.3853287,26.0096203 13.1334781,25.6158235 C12.7557021,25.0251285 12.2751447,23.4509855 12.2751447,22.8361853 C12.2751447,22.2619017 12.2751447,8.70495951 12.2751447,8.00046895 C12.2751447,6.90795243 12.5181013,4.01176198 11.6752454,3.0682351 C10.8323895,2.12470823 7.2341885,0 0,0" stroke="#9FAABA" stroke-width="2" fill="none" stroke-miterlimit="10"></path></g></g><g transform="translate(15.0 0.0)"><g transform="translate(-0.6808213792618858 0.0)"><path d="M14.6808214,26.8364379 C13.9011098,26.4164917 13.3853287,26.0096203 13.1334781,25.6158235 C12.7557021,25.0251285 12.2751447,23.4509855 12.2751447,22.8361853 C12.2751447,22.2619017 12.2751447,8.70495951 12.2751447,8.00046895 C12.2751447,6.90795243 12.5181013,4.01176198 11.6752454,3.0682351 C10.8323895,2.12470823 7.2341885,0 0,0" stroke="#9FAABA" stroke-width="2" fill="none" stroke-miterlimit="10"></path></g></g></g><g transform="translate(25.0 0.0)"><g transform="translate(14.0 0.0) scale(-1.0 1.0)"><g transform="translate(-0.6808213792618858 0.0)"><path d="M14.6808214,26.8364379 C13.9011098,26.4164917 13.3853287,26.0096203 13.1334781,25.6158235 C12.7557021,25.0251285 12.2751447,23.4509855 12.2751447,22.8361853 C12.2751447,22.2619017 12.2751447,8.70495951 12.2751447,8.00046895 C12.2751447,6.90795243 12.5181013,4.01176198 11.6752454,3.0682351 C10.8323895,2.12470823 7.2341885,0 0,0" stroke="#9FAABA" stroke-width="2" fill="none" stroke-miterlimit="10"></path></g></g><g transform="translate(15.0 0.0)"><g transform="translate(-0.6808213792618858 0.0)"><path d="M14.6808214,26.8364379 C13.9011098,26.4164917 13.3853287,26.0096203 13.1334781,25.6158235 C12.7557021,25.0251285 12.2751447,23.4509855 12.2751447,22.8361853 C12.2751447,22.2619017 12.2751447,8.70495951 12.2751447,8.00046895 C12.2751447,6.90795243 12.5181013,4.01176198 11.6752454,3.0682351 C10.8323895,2.12470823 7.2341885,0 0,0" stroke="#9FAABA" stroke-width="2" fill="none" stroke-miterlimit="10"></path></g></g></g></g></g></svg>